HIERARCHY
ROOT RootJoint
{
    OFFSET   0.000000   0.000000   0.000000
    CHANNELS 6 Xposition Yposition Zposition Xrotation Yrotation Zrotation
    JOINT pelvis_lowerback
    {
        OFFSET   0.000000   0.093605   0.000000
        CHANNELS 3 Xrotation Yrotation Zrotation
        JOINT lowerback_torso
        {
            OFFSET   0.000000   0.100000   0.000000
            CHANNELS 3 Xrotation Yrotation Zrotation
            JOINT torso_head
            {
                OFFSET   0.000000   0.282350   0.000000
                CHANNELS 3 Xrotation Yrotation Zrotation
                End Site
                {
                    OFFSET   0.000000   0.192650   0.000000
                }
            }
            JOINT rTorso_Clavicle
            {
                OFFSET  -0.001000   0.157500   0.000000
                CHANNELS 3 Xrotation Yrotation Zrotation
                JOINT rShoulder
                {
                    OFFSET  -0.117647   0.000000   0.000000
                    CHANNELS 3 Xrotation Yrotation Zrotation
                    JOINT rElbow
                    {
                        OFFSET  -0.245000   0.000000   0.000000
                        CHANNELS 3 Xrotation Yrotation Zrotation
                        JOINT rWrist
                        {
                            OFFSET  -0.240000   0.000000   0.000000
                            CHANNELS 3 Xrotation Yrotation Zrotation
                            End Site
                            {
                                OFFSET  -0.116353  -0.002500   0.000000
                            }
                        }
                    }
                }
            }
            JOINT lTorso_Clavicle
            {
                OFFSET   0.001000   0.157500   0.000000
                CHANNELS 3 Xrotation Yrotation Zrotation
                JOINT lShoulder
                {
                    OFFSET   0.117647   0.000000   0.000000
                    CHANNELS 3 Xrotation Yrotation Zrotation
                    JOINT lElbow
                    {
                        OFFSET   0.245000   0.000000   0.000000
                        CHANNELS 3 Xrotation Yrotation Zrotation
                        JOINT lWrist
                        {
                            OFFSET   0.240000   0.000000   0.000000
                            CHANNELS 3 Xrotation Yrotation Zrotation
                            End Site
                            {
                                OFFSET   0.116353  -0.002500   0.000000
                            }
                        }
                    }
                }
            }
        }
    }
    JOINT rHip
    {
        OFFSET  -0.100000  -0.051395   0.000000
        CHANNELS 3 Xrotation Yrotation Zrotation
        JOINT rKnee
        {
            OFFSET   0.000000  -0.410000   0.000000
            CHANNELS 3 Xrotation Yrotation Zrotation
            JOINT rAnkle
            {
                OFFSET   0.000000  -0.390000   0.000000
                CHANNELS 3 Xrotation Yrotation Zrotation
                JOINT rToeJoint
                {
                    OFFSET   0.000000  -0.050000   0.130000
                    CHANNELS 3 Xrotation Yrotation Zrotation
                    End Site
                    {
                        OFFSET  -0.010000   0.002000   0.060000
                    }
                }
            }
        }
    }
    JOINT lHip
    {
        OFFSET   0.100000  -0.051395   0.000000
        CHANNELS 3 Xrotation Yrotation Zrotation
        JOINT lKnee
        {
            OFFSET   0.000000  -0.410000   0.000000
            CHANNELS 3 Xrotation Yrotation Zrotation
            JOINT lAnkle
            {
                OFFSET   0.000000  -0.390000   0.000000
                CHANNELS 3 Xrotation Yrotation Zrotation
                JOINT lToeJoint
                {
                    OFFSET   0.000000  -0.050000   0.130000
                    CHANNELS 3 Xrotation Yrotation Zrotation
                    End Site
                    {
                        OFFSET   0.010000   0.002000   0.060000
                    }
                }
            }
        }
    }
}
MOTION
Frames: 12
Frame Time:   0.008333
 -2.360290   0.950485   4.998412   5.592599 -37.520533   1.826666   7.695054  -0.017436  -4.678258   8.117659  -6.318473  -1.759080   2.802446   3.445347  -0.955936   9.404161   0.660562  10.943561  11.740834 -10.403308  18.325142  -0.001020  40.690063  -0.000786  14.045672  -0.363538 -47.120164   2.969750 -13.427539 -18.722317   4.093648  -1.330049  -8.557358  -0.000045 -24.573767  -0.000073  12.746701   0.043673  52.100414  -3.084344   8.359291   6.959848   2.167807   0.000332  -0.000413  17.818785   1.562907  -6.484783 -32.879200   0.000128   0.001089 -20.333651  -8.584652   2.271333  20.026412  -0.002626   0.001471  -2.168690   3.908305  -2.972132 -11.129726  -0.000078  -0.000169
 -2.360298   0.950846   5.000259   5.511332 -37.568523   1.815061   7.757280   0.018242  -4.745728   8.107331  -6.285093  -1.784927   2.799009   3.435635  -0.893399   9.430734   0.548962  10.993475  11.814027 -10.512429  18.503269  -0.001089  40.522464  -0.000628  14.034809  -0.332861 -47.046743   2.995945 -13.431768 -18.687632   4.010767  -1.279617  -8.617545  -0.000034 -24.583008  -0.000067  12.713868  -0.015039  52.027143  -3.043709   8.315546   6.855217   2.442886   0.000431  -0.000548  17.717274   1.629247  -6.330701 -33.023523   0.000208   0.000980 -19.655867  -8.529874   2.171067  19.535753  -0.002769   0.001503  -2.002448   4.059311  -2.828975 -11.251947  -0.000036  -0.000228
 -2.360310   0.951221   5.002141   5.439937 -37.606821   1.806286   7.802481   0.049962  -4.813352   8.101403  -6.256564  -1.811787   2.796984   3.428018  -0.836723   9.467083   0.424150  11.056238  11.893269 -10.627456  18.687369  -0.001158  40.360157  -0.000498  14.029779  -0.299997 -46.940102   3.027678 -13.422328 -18.659235   3.935699  -1.222949  -8.679927  -0.000025 -24.589123  -0.000060  12.682754  -0.073389  51.944591  -3.020856   8.251571   6.756022   2.736052   0.000515  -0.000696  17.631698   1.678276  -6.170633 -33.221649   0.000306   0.000979 -18.974467  -8.478050   2.063797  19.079717  -0.002878   0.001479  -1.847710   4.200877  -2.695708 -11.362245  -0.000020  -0.000267
 -2.360298   0.951583   5.004035   5.386460 -37.638296   1.802720   7.833759   0.076983  -4.878014   8.092698  -6.233776  -1.837055   2.794353   3.421124  -0.784563   9.507215   0.293576  11.122822  11.972737 -10.743574  18.868122  -0.001198  40.205150  -0.000403  14.026913  -0.266997 -46.823387   3.062635 -13.403145 -18.635516   3.867299  -1.162139  -8.742024  -0.000018 -24.592219  -0.000051  12.653236  -0.129450  51.861965  -3.011825   8.178810   6.661885   3.022641   0.000576  -0.000816  17.559426   1.716381  -6.013054 -33.444587   0.000386   0.001024 -18.308727  -8.428413   1.954112  18.665426  -0.002929   0.001410  -1.703240   4.333210  -2.571795 -11.463406  -0.000020  -0.000291
 -2.360244   0.951919   5.005925   5.351228 -37.661098   1.802646   7.855092   0.098372  -4.937634   8.081095  -6.216589  -1.859333   2.790968   3.414667  -0.735906   9.548555   0.162152  11.189108  12.050289 -10.857999  19.041803  -0.001205  40.058079  -0.000331  14.024851  -0.234824 -46.706049   3.098293 -13.379069 -18.614497   3.804396  -1.100491  -8.801817  -0.000014 -24.593407  -0.000041  12.625025  -0.183055  51.781762  -3.014684   8.106024   6.572779   3.295567   0.000620  -0.000882  17.497434   1.750785  -5.863401 -33.677672   0.000438   0.001054 -17.665481  -8.381666   1.845172  18.288571  -0.002930   0.001304  -1.568271   4.456882  -2.456528 -11.555895  -0.000028  -0.000306
 -2.360140   0.952224   5.007800   5.333233 -37.674195   1.804692   7.869591   0.114313  -4.991753   8.067448  -6.204496  -1.878126   2.787133   3.408581  -0.690267   9.589620   0.033046  11.253298  12.124874 -10.968877  19.206910  -0.001182  39.919200  -0.000273  14.023115  -0.203822 -46.591481   3.132975 -13.353442 -18.594776   3.746107  -1.040375  -8.858042  -0.000011 -24.593608  -0.000033  12.597941  -0.234225  51.705035  -3.027910   8.035525   6.488928   3.552383   0.000650  -0.000897  17.442422   1.783248  -5.722238 -33.911543   0.000464   0.001052 -17.048100  -8.337983   1.739037  17.944491  -0.002890   0.001171  -1.442209   4.572456  -2.349255 -11.640437  -0.000039  -0.000315
 -2.359981   0.952495   5.009653   5.331126 -37.677707   1.807939   7.879594   0.125538  -5.040604   8.052605  -6.196702  -1.893543   2.783136   3.402850  -0.647410   9.629458  -0.091656  11.314651  12.195929 -11.074972  19.362927  -0.001137  39.788544  -0.000223  14.021534  -0.174085 -46.480832   3.165733 -13.328273 -18.575602   3.691804  -0.983183  -8.910118  -0.000009 -24.593411  -0.000027  12.571871  -0.283033  51.632254  -3.050203   7.967804   6.410400   3.792358   0.000670  -0.000873  17.392017   1.814089  -5.589467 -34.140400   0.000466   0.001018 -16.458281  -8.297347   1.637027  17.629332  -0.002816   0.001025  -1.324501   4.680465  -2.249388 -11.717752  -0.000052  -0.000318
 -2.359804   0.952835   5.011541   5.299537 -37.783281   1.791657   7.871633   0.202745  -5.114812   8.094301  -6.157888  -1.908516   2.782853   3.455277  -0.561378   9.679351  -0.217595  11.414039  12.329056 -11.168430  19.532587  -0.001051  39.727748  -0.000123  14.022321  -0.140024 -46.343098   3.198730 -13.334550 -18.524431   3.664741  -0.884948  -9.038734  -0.000038 -24.568655  -0.000016  12.547663  -0.337290  51.522878  -3.250863   7.861267   6.339215   4.440799   0.001046  -0.001792  17.184247   1.980313  -5.264140 -34.435512   0.000968   0.001307 -15.728781  -8.245799   1.541003  17.136996  -0.003087   0.001364  -0.842645   4.794861  -2.030019 -11.851154   0.000056  -0.000248
 -2.359635   0.953177   5.013488   5.256144 -37.876253   1.752258   7.854382   0.268215  -5.179179   8.144055  -6.123369  -1.915368   2.785633   3.506509  -0.477939   9.733199  -0.347369  11.527535  12.461673 -11.258949  19.709616  -0.000981  39.672155  -0.000052  14.027445  -0.103607 -46.177611   3.239002 -13.329040 -18.491860   3.644445  -0.783546  -9.174644  -0.000070 -24.541318  -0.000008  12.528358  -0.391198  51.384928  -3.468224   7.727148   6.288251   5.134768   0.001342  -0.002682  17.004598   2.120114  -4.933239 -34.813946   0.001514   0.001804 -14.981268  -8.201053   1.436518  16.677120  -0.003343   0.001573  -0.390070   4.902725  -1.826236 -11.949397   0.000086  -0.000196
 -2.359452   0.953488   5.015473   5.217034 -37.947024   1.703388   7.826127   0.321814  -5.234611   8.189558  -6.097524  -1.915951   2.788123   3.554190  -0.399078   9.788617  -0.479878  11.647347  12.590899 -11.348700  19.887397  -0.000921  39.618091  -0.000005  14.034654  -0.066415 -46.000001   3.282026 -13.316015 -18.471614   3.628156  -0.683071  -9.310752  -0.000097 -24.513805   0.000001  12.511444  -0.443799  51.237359  -3.685200   7.592289   6.245975   5.814916   0.001562  -0.003254  16.853052   2.247394  -4.617748 -35.227932   0.001964   0.002220 -14.247619  -8.158867   1.321272  16.260878  -0.003542   0.001620   0.032449   5.004550  -1.636901 -12.038647   0.000083  -0.000167
 -2.359242   0.953751   5.017475   5.187256 -37.995625   1.648745   7.789225   0.365589  -5.282176   8.227984  -6.079523  -1.911280   2.789432   3.598565  -0.324719   9.844086  -0.612168  11.768389  12.715367 -11.436745  20.061859  -0.000863  39.565728   0.000024  14.042861  -0.029406 -45.818673   3.324931 -13.299515 -18.457821   3.614375  -0.586079  -9.442517  -0.000117 -24.487044   0.000009  12.495863  -0.494585  51.088835  -3.898198   7.462762   6.210254   6.465945   0.001723  -0.003525  16.720553   2.366916  -4.318895 -35.650788   0.002286   0.002480 -13.538674  -8.119048   1.199156  15.883138  -0.003674   0.001553   0.426897   5.100638  -1.460929 -12.120290   0.000061  -0.000155
 -2.358997   0.953961   5.019476   5.168010 -38.024289   1.589184   7.746527   0.401521  -5.322922   8.259427  -6.067716  -1.902228   2.789622   3.639914  -0.254737   9.898299  -0.741422  11.887594  12.834131 -11.521721  20.230450  -0.000804  39.515547   0.000041  14.051498   0.006912 -45.638088   3.366053 -13.282091 -18.446802   3.602160  -0.494058  -9.567297  -0.000131 -24.461572   0.000017  12.481094  -0.543307  50.943779  -4.106143   7.339570   6.181189   7.083441   0.001837  -0.003568  16.600870   2.479903  -4.036708 -36.068531   0.002484   0.002591 -12.859079  -8.081846   1.074184  15.538618  -0.003740   0.001417   0.795094   5.191239  -1.297317 -12.195000   0.000031  -0.000154
